<mxfile host="app.diagrams.net" modified="2022-03-14T13:25:13.816Z" agent="5.0 (Macintosh; Intel Mac OS X 10_15_7) AppleWebKit/537.36 (KHTML, like Gecko) Chrome/99.0.4844.51 Safari/537.36" etag="ORZI8f0KIPwm3GyG5PGC" version="17.1.2" type="github">
  <diagram id="Dotn52hqEGQcJdxmUJmI" name="Page-1">
    <mxGraphModel dx="967" dy="712" grid="1" gridSize="10" guides="1" tooltips="1" connect="1" arrows="1" fold="1" page="1" pageScale="1" pageWidth="827" pageHeight="1169" math="0" shadow="0">
      <root>
        <mxCell id="0" />
        <mxCell id="1" parent="0" />
        <mxCell id="GP2DRnJBWhwJwzikMzaM-6" style="edgeStyle=orthogonalEdgeStyle;rounded=0;orthogonalLoop=1;jettySize=auto;html=1;exitX=0.5;exitY=1;exitDx=0;exitDy=0;exitPerimeter=0;fontSize=16;strokeColor=#000000;" edge="1" parent="1" source="GP2DRnJBWhwJwzikMzaM-1" target="GP2DRnJBWhwJwzikMzaM-5">
          <mxGeometry relative="1" as="geometry" />
        </mxCell>
        <mxCell id="GP2DRnJBWhwJwzikMzaM-11" style="edgeStyle=orthogonalEdgeStyle;rounded=0;orthogonalLoop=1;jettySize=auto;html=1;exitX=1;exitY=0.5;exitDx=0;exitDy=0;exitPerimeter=0;entryX=0;entryY=0.5;entryDx=0;entryDy=0;entryPerimeter=0;fontSize=16;strokeColor=#000000;" edge="1" parent="1" source="GP2DRnJBWhwJwzikMzaM-1" target="GP2DRnJBWhwJwzikMzaM-10">
          <mxGeometry relative="1" as="geometry" />
        </mxCell>
        <mxCell id="GP2DRnJBWhwJwzikMzaM-12" value="有异常" style="edgeLabel;html=1;align=center;verticalAlign=middle;resizable=0;points=[];fontSize=16;" vertex="1" connectable="0" parent="GP2DRnJBWhwJwzikMzaM-11">
          <mxGeometry x="-0.1556" y="1" relative="1" as="geometry">
            <mxPoint x="-8" y="-14" as="offset" />
          </mxGeometry>
        </mxCell>
        <mxCell id="GP2DRnJBWhwJwzikMzaM-1" value="&lt;font style=&quot;font-size: 16px&quot;&gt;关闭&lt;br&gt;状态&lt;/font&gt;" style="strokeWidth=2;html=1;shape=mxgraph.flowchart.start_2;whiteSpace=wrap;fillColor=#d5e8d4;strokeColor=none;" vertex="1" parent="1">
          <mxGeometry x="170" y="280" width="60" height="60" as="geometry" />
        </mxCell>
        <mxCell id="GP2DRnJBWhwJwzikMzaM-2" value="" style="endArrow=classic;html=1;rounded=0;fontSize=16;entryX=0.5;entryY=0;entryDx=0;entryDy=0;entryPerimeter=0;strokeColor=#000000;" edge="1" parent="1" target="GP2DRnJBWhwJwzikMzaM-1">
          <mxGeometry width="50" height="50" relative="1" as="geometry">
            <mxPoint x="160" y="200" as="sourcePoint" />
            <mxPoint x="150" y="200" as="targetPoint" />
          </mxGeometry>
        </mxCell>
        <mxCell id="GP2DRnJBWhwJwzikMzaM-3" value="" style="endArrow=classic;html=1;rounded=0;fontSize=16;strokeColor=#000000;" edge="1" parent="1" target="GP2DRnJBWhwJwzikMzaM-1">
          <mxGeometry width="50" height="50" relative="1" as="geometry">
            <mxPoint x="200" y="200" as="sourcePoint" />
            <mxPoint x="150" y="270" as="targetPoint" />
          </mxGeometry>
        </mxCell>
        <mxCell id="GP2DRnJBWhwJwzikMzaM-4" value="" style="endArrow=classic;html=1;rounded=0;fontSize=16;entryX=0.5;entryY=0;entryDx=0;entryDy=0;entryPerimeter=0;strokeColor=#000000;" edge="1" parent="1" target="GP2DRnJBWhwJwzikMzaM-1">
          <mxGeometry width="50" height="50" relative="1" as="geometry">
            <mxPoint x="240" y="200" as="sourcePoint" />
            <mxPoint x="210" y="290" as="targetPoint" />
          </mxGeometry>
        </mxCell>
        <mxCell id="GP2DRnJBWhwJwzikMzaM-5" value="服务方" style="strokeWidth=2;html=1;shape=mxgraph.flowchart.start_1;whiteSpace=wrap;fontSize=16;fillColor=#dae8fc;strokeColor=#6c8ebf;" vertex="1" parent="1">
          <mxGeometry x="150" y="470" width="100" height="60" as="geometry" />
        </mxCell>
        <mxCell id="GP2DRnJBWhwJwzikMzaM-7" value="&lt;font style=&quot;font-size: 16px&quot;&gt;1&lt;/font&gt;" style="strokeWidth=2;html=1;shape=mxgraph.flowchart.start_2;whiteSpace=wrap;fillColor=#CCCC00;strokeColor=none;" vertex="1" parent="1">
          <mxGeometry x="140" y="280" width="30" height="30" as="geometry" />
        </mxCell>
        <mxCell id="GP2DRnJBWhwJwzikMzaM-8" value="无异常" style="text;html=1;align=center;verticalAlign=middle;resizable=0;points=[];autosize=1;strokeColor=none;fillColor=none;fontSize=16;" vertex="1" parent="1">
          <mxGeometry x="170" y="400" width="60" height="20" as="geometry" />
        </mxCell>
        <mxCell id="GP2DRnJBWhwJwzikMzaM-9" value="&lt;font style=&quot;font-size: 16px&quot;&gt;2&lt;/font&gt;" style="strokeWidth=2;html=1;shape=mxgraph.flowchart.start_2;whiteSpace=wrap;fillColor=#CCCC00;strokeColor=none;" vertex="1" parent="1">
          <mxGeometry x="170" y="360" width="30" height="30" as="geometry" />
        </mxCell>
        <mxCell id="GP2DRnJBWhwJwzikMzaM-15" style="edgeStyle=orthogonalEdgeStyle;rounded=0;orthogonalLoop=1;jettySize=auto;html=1;exitX=1;exitY=0.5;exitDx=0;exitDy=0;exitPerimeter=0;fontSize=12;strokeColor=#000000;" edge="1" parent="1" source="GP2DRnJBWhwJwzikMzaM-10" target="GP2DRnJBWhwJwzikMzaM-14">
          <mxGeometry relative="1" as="geometry" />
        </mxCell>
        <mxCell id="GP2DRnJBWhwJwzikMzaM-10" value="验证" style="strokeWidth=2;html=1;shape=mxgraph.flowchart.decision;whiteSpace=wrap;fontSize=16;fillColor=none;strokeColor=#999900;" vertex="1" parent="1">
          <mxGeometry x="320" y="280" width="60" height="60" as="geometry" />
        </mxCell>
        <mxCell id="GP2DRnJBWhwJwzikMzaM-13" value="&lt;ul style=&quot;font-size: 12px&quot;&gt;&lt;li&gt;时间：10秒内，失败率&amp;gt;50%&lt;/li&gt;&lt;li&gt;空间：&amp;gt;20&lt;/li&gt;&lt;/ul&gt;" style="text;html=1;align=left;verticalAlign=middle;resizable=0;points=[];autosize=1;strokeColor=none;fillColor=none;fontSize=16;" vertex="1" parent="1">
          <mxGeometry x="300" y="224" width="210" height="70" as="geometry" />
        </mxCell>
        <mxCell id="GP2DRnJBWhwJwzikMzaM-17" style="edgeStyle=orthogonalEdgeStyle;rounded=0;orthogonalLoop=1;jettySize=auto;html=1;exitX=1;exitY=0.5;exitDx=0;exitDy=0;exitPerimeter=0;fontSize=12;strokeColor=#000000;" edge="1" parent="1" source="GP2DRnJBWhwJwzikMzaM-14" target="GP2DRnJBWhwJwzikMzaM-16">
          <mxGeometry relative="1" as="geometry" />
        </mxCell>
        <mxCell id="GP2DRnJBWhwJwzikMzaM-21" style="edgeStyle=orthogonalEdgeStyle;rounded=0;orthogonalLoop=1;jettySize=auto;html=1;exitX=0.5;exitY=1;exitDx=0;exitDy=0;exitPerimeter=0;fontSize=12;strokeColor=#000000;startArrow=none;" edge="1" parent="1" source="GP2DRnJBWhwJwzikMzaM-25" target="GP2DRnJBWhwJwzikMzaM-20">
          <mxGeometry relative="1" as="geometry" />
        </mxCell>
        <mxCell id="GP2DRnJBWhwJwzikMzaM-14" value="&lt;font style=&quot;font-size: 16px&quot;&gt;启动&lt;br&gt;状态&lt;/font&gt;" style="strokeWidth=2;html=1;shape=mxgraph.flowchart.start_2;whiteSpace=wrap;fillColor=#FF9999;strokeColor=none;" vertex="1" parent="1">
          <mxGeometry x="490" y="280" width="60" height="60" as="geometry" />
        </mxCell>
        <mxCell id="GP2DRnJBWhwJwzikMzaM-16" value="Fallback" style="strokeWidth=2;html=1;shape=mxgraph.flowchart.start_1;whiteSpace=wrap;fontSize=16;fillColor=#FFD966;strokeColor=none;" vertex="1" parent="1">
          <mxGeometry x="650" y="280" width="100" height="60" as="geometry" />
        </mxCell>
        <mxCell id="GP2DRnJBWhwJwzikMzaM-18" value="&lt;font style=&quot;font-size: 16px&quot;&gt;3&lt;/font&gt;" style="strokeWidth=2;html=1;shape=mxgraph.flowchart.start_2;whiteSpace=wrap;fillColor=#CCCC00;strokeColor=none;" vertex="1" parent="1">
          <mxGeometry x="290" y="274" width="30" height="30" as="geometry" />
        </mxCell>
        <mxCell id="GP2DRnJBWhwJwzikMzaM-19" value="所有请求&lt;br&gt;直接进入" style="edgeLabel;html=1;align=center;verticalAlign=middle;resizable=0;points=[];fontSize=16;" vertex="1" connectable="0" parent="1">
          <mxGeometry x="593" y="310" as="geometry" />
        </mxCell>
        <mxCell id="GP2DRnJBWhwJwzikMzaM-27" style="edgeStyle=orthogonalEdgeStyle;rounded=0;orthogonalLoop=1;jettySize=auto;html=1;exitX=0;exitY=0.5;exitDx=0;exitDy=0;exitPerimeter=0;fontSize=12;strokeColor=#000000;" edge="1" parent="1" source="GP2DRnJBWhwJwzikMzaM-20" target="GP2DRnJBWhwJwzikMzaM-5">
          <mxGeometry relative="1" as="geometry" />
        </mxCell>
        <mxCell id="GP2DRnJBWhwJwzikMzaM-20" value="重试" style="strokeWidth=2;html=1;shape=mxgraph.flowchart.decision;whiteSpace=wrap;fontSize=16;fillColor=none;strokeColor=#999900;" vertex="1" parent="1">
          <mxGeometry x="490" y="470" width="60" height="60" as="geometry" />
        </mxCell>
        <mxCell id="GP2DRnJBWhwJwzikMzaM-22" value="&lt;font style=&quot;font-size: 16px&quot;&gt;4&lt;/font&gt;" style="strokeWidth=2;html=1;shape=mxgraph.flowchart.start_2;whiteSpace=wrap;fillColor=#CCCC00;strokeColor=none;" vertex="1" parent="1">
          <mxGeometry x="550" y="264" width="30" height="30" as="geometry" />
        </mxCell>
        <mxCell id="GP2DRnJBWhwJwzikMzaM-23" value="&lt;font style=&quot;font-size: 16px&quot;&gt;5&lt;/font&gt;" style="strokeWidth=2;html=1;shape=mxgraph.flowchart.start_2;whiteSpace=wrap;fillColor=#CCCC00;strokeColor=none;" vertex="1" parent="1">
          <mxGeometry x="490" y="360" width="30" height="30" as="geometry" />
        </mxCell>
        <mxCell id="GP2DRnJBWhwJwzikMzaM-25" value="5秒后" style="text;html=1;align=center;verticalAlign=middle;resizable=0;points=[];autosize=1;strokeColor=none;fillColor=none;fontSize=16;" vertex="1" parent="1">
          <mxGeometry x="490" y="420" width="60" height="20" as="geometry" />
        </mxCell>
        <mxCell id="GP2DRnJBWhwJwzikMzaM-26" value="" style="edgeStyle=orthogonalEdgeStyle;rounded=0;orthogonalLoop=1;jettySize=auto;html=1;exitX=0.5;exitY=1;exitDx=0;exitDy=0;exitPerimeter=0;fontSize=12;strokeColor=#000000;endArrow=none;" edge="1" parent="1" source="GP2DRnJBWhwJwzikMzaM-14" target="GP2DRnJBWhwJwzikMzaM-25">
          <mxGeometry relative="1" as="geometry">
            <mxPoint x="520" y="340" as="sourcePoint" />
            <mxPoint x="520" y="480" as="targetPoint" />
          </mxGeometry>
        </mxCell>
        <mxCell id="GP2DRnJBWhwJwzikMzaM-28" value="A.请求成功" style="text;html=1;align=center;verticalAlign=middle;resizable=0;points=[];autosize=1;strokeColor=none;fillColor=none;fontSize=16;" vertex="1" parent="1">
          <mxGeometry x="325" y="510" width="90" height="20" as="geometry" />
        </mxCell>
        <mxCell id="GP2DRnJBWhwJwzikMzaM-30" value="" style="endArrow=classic;html=1;rounded=0;fontSize=16;entryX=0.855;entryY=0.855;entryDx=0;entryDy=0;entryPerimeter=0;strokeColor=#000000;exitX=0;exitY=0.5;exitDx=0;exitDy=0;exitPerimeter=0;" edge="1" parent="1" source="GP2DRnJBWhwJwzikMzaM-20" target="GP2DRnJBWhwJwzikMzaM-1">
          <mxGeometry width="50" height="50" relative="1" as="geometry">
            <mxPoint x="250" y="210" as="sourcePoint" />
            <mxPoint x="210" y="290" as="targetPoint" />
          </mxGeometry>
        </mxCell>
        <mxCell id="GP2DRnJBWhwJwzikMzaM-31" value="B.一量请求成功，&lt;br&gt;就关闭熔断" style="text;html=1;align=center;verticalAlign=middle;resizable=0;points=[];autosize=1;strokeColor=none;fillColor=none;fontSize=16;rotation=30;" vertex="1" parent="1">
          <mxGeometry x="300" y="380" width="140" height="40" as="geometry" />
        </mxCell>
        <mxCell id="GP2DRnJBWhwJwzikMzaM-34" value="" style="endArrow=classic;html=1;rounded=0;fontSize=16;entryX=0.5;entryY=1;entryDx=0;entryDy=0;entryPerimeter=0;strokeColor=#000000;exitX=1;exitY=0.5;exitDx=0;exitDy=0;exitPerimeter=0;" edge="1" parent="1" source="GP2DRnJBWhwJwzikMzaM-20" target="GP2DRnJBWhwJwzikMzaM-16">
          <mxGeometry width="50" height="50" relative="1" as="geometry">
            <mxPoint x="560" y="500" as="sourcePoint" />
            <mxPoint x="231.29999999999995" y="341.29999999999995" as="targetPoint" />
          </mxGeometry>
        </mxCell>
        <mxCell id="GP2DRnJBWhwJwzikMzaM-35" value="C.请求失败" style="text;html=1;align=center;verticalAlign=middle;resizable=0;points=[];autosize=1;strokeColor=none;fillColor=none;fontSize=16;" vertex="1" parent="1">
          <mxGeometry x="593" y="450" width="100" height="20" as="geometry" />
        </mxCell>
        <mxCell id="GP2DRnJBWhwJwzikMzaM-36" value="大量请求" style="text;html=1;align=center;verticalAlign=middle;resizable=0;points=[];autosize=1;strokeColor=none;fillColor=none;fontSize=16;" vertex="1" parent="1">
          <mxGeometry x="97" y="224" width="80" height="20" as="geometry" />
        </mxCell>
      </root>
    </mxGraphModel>
  </diagram>
</mxfile>
